<svg xmlns="http://www.w3.org/2000/svg" viewBox="0 0 512 512" role="img" aria-labelledby="title desc">
  <title id="title">iOS Location Spoofer</title>
  <desc id="desc">深色背景上的定位图钉与网络波纹图标</desc>
  <defs>
    <linearGradient id="bg" x1="0" y1="0" x2="1" y2="1">
      <stop offset="0" stop-color="#111b2e"/>
      <stop offset="1" stop-color="#07101f"/>
    </linearGradient>
    <linearGradient id="pin" x1="0" y1="0" x2="1" y2="1">
      <stop offset="0" stop-color="#67e8f9"/>
      <stop offset="1" stop-color="#38bdf8"/>
    </linearGradient>
  </defs>
  <rect width="512" height="512" rx="112" fill="url(#bg)"/>
  <circle cx="256" cy="256" r="174" fill="none" stroke="#38bdf8" stroke-opacity=".12" stroke-width="18"/>
  <path d="M256 390c-12-18-96-112-96-184 0-53 43-96 96-96s96 43 96 96c0 72-84 166-96 184Z" fill="url(#pin)"/>
  <circle cx="256" cy="206" r="39" fill="#0b1526"/>
  <path d="M365 315c22-16 36-40 36-68s-14-52-36-68" fill="none" stroke="#67e8f9" stroke-linecap="round" stroke-width="16"/>
  <path d="M407 350c36-27 59-61 59-103s-23-76-59-103" fill="none" stroke="#38bdf8" stroke-linecap="round" stroke-opacity=".72" stroke-width="13"/>
  <circle cx="256" cy="206" r="10" fill="#67e8f9"/>
</svg>
